<?xml version="1.0" encoding="UTF-8"?>
<svg id="uuid-7f2c1846-78a2-4d2b-af94-f93ff53b8ebd" data-name="Layer 1" xmlns="http://www.w3.org/2000/svg" viewBox="0 0 1682 387">
  <defs>
    <style>
      .uuid-01c4a4e5-5d51-4c55-93a0-5bdc195c648b {
        fill: #2e95f3;
      }

      .uuid-01ef7cdb-3a15-4d67-b360-3b540d8ee2c6 {
        fill: #37404a;
      }

      .uuid-000c3f88-c332-4be1-87ee-a8f8c545974b {
        fill: #1c75bc;
      }
    </style>
  </defs>
  <g>
    <path class="uuid-000c3f88-c332-4be1-87ee-a8f8c545974b" d="M373.81,187.2c30.57-42.35,76.45-95.54,94.92-100.1,36.39-8.98,73.29,13.31,82.28,49.7,8.98,36.38-13.31,73.29-49.7,82.27-8.93,2.21-25.07-.81-44.59-7.09,39.16,18.43,76.76,30.21,110.25,35.78,11.03,1.88,21.52,3.04,31.48,3.76,30.87-35.68,44.61-85.27,32.47-134.44-19.86-80.45-101.46-129.74-181.9-109.89-33.91,8.37-71.02,38.88-113.43,93.27-7.53,9.66-25.1,33.92-31.31,42.69.38.21.76.4,1.14.62"/>
    <path class="uuid-000c3f88-c332-4be1-87ee-a8f8c545974b" d="M272.06,212.32c-46.76-23.26-112.12-48.99-130.59-44.43-36.38,8.98-58.68,45.89-49.7,82.28,8.98,36.38,45.89,58.67,82.27,49.69,8.94-2.21,21.82-12.38,36.17-27.03-26.08,34.54-53.88,62.46-80.93,82.97-8.89,6.8-17.64,12.71-26.11,17.98-43.93-17.22-79.17-54.71-91.31-103.89C-7.99,189.44,41.3,107.84,121.74,87.98c33.92-8.37,80.96,1.37,143.81,29.78,11.16,5.04,38,18.34,47.58,23.21-.23.36-.48.71-.71,1.08"/>
    <path class="uuid-01c4a4e5-5d51-4c55-93a0-5bdc195c648b" d="M75.62,139.25c33.49,5.56,71.44,18.68,110.6,37.12,22.97,7.4,50.4,18.81,76.81,32.35l71.72,39.57.02.09c12.19,6.43,26.76,13.74,42.45,20.83,62.85,28.41,109.89,38.15,143.8,29.78,31.26-7.72,57.78-24.79,77.41-47.46-9.96-.72-20.44-1.88-31.48-3.76-33.49-5.57-71.09-17.35-110.25-35.78-22.97-7.4-50.65-19.34-77.06-32.88l-71.83-40.38-.02-.08c-12.19-6.43-26.76-13.75-42.45-20.84-62.85-28.41-109.89-38.14-143.8-29.77-31.26,7.72-57.78,24.79-77.41,47.46,9.96.71,20.44,1.87,31.48,3.76Z"/>
    <path class="uuid-01c4a4e5-5d51-4c55-93a0-5bdc195c648b" d="M129.08,355.85c27.06-20.5,54.85-48.43,80.94-82.97,16.89-17.24,35.83-40.68,52.91-64.96l44.79-69.16-.02-.09c7.8-11.36,17.29-24.62,27.88-38.19,42.41-54.39,79.52-84.9,113.43-93.27,31.26-7.72,62.68-4.95,90.6,5.99-8.48,5.27-17.22,11.18-26.11,17.97-27.05,20.51-55.43,50.57-81.52,85.11-16.89,17.24-34.79,39.43-51.86,63.7l-45.25,68.3.02.08c-7.8,11.36-17.29,24.62-27.88,38.2-42.41,54.39-79.52,84.89-113.43,93.26-31.26,7.72-62.68,4.95-90.6-5.99,8.48-5.26,17.23-11.17,26.11-17.98Z"/>
  </g>
  <g>
    <g>
      <path class="uuid-01ef7cdb-3a15-4d67-b360-3b540d8ee2c6" d="M116.2,343.84c0-30.55,27.14-48.27,81.44-53.16v-7.85c0-8.73-5.15-13.09-15.45-13.09s-26.1,4.8-46.35,14.4l-16.5-34.56c23.22-11.87,45.04-17.81,65.46-17.81,41.02,0,61.54,17.63,61.54,52.9v53.68c0,5.76,3.23,8.64,9.69,8.64v32.21c-15.89,0-27.54-1.22-34.96-3.67-7.42-2.44-13.57-7.33-18.46-14.67-6.29,7.33-12.88,12.66-19.77,15.97-6.9,3.31-15.23,4.98-25.01,4.98-12.22,0-22.22-3.49-29.98-10.48-7.77-6.98-11.65-16.15-11.65-27.49ZM164.91,336.51c0,3.32,1.18,6.11,3.54,8.38,2.36,2.27,5.45,3.4,9.3,3.4,8.03,0,14.67-3.23,19.9-9.69v-23.3c-21.82,1.57-32.73,8.64-32.73,21.21Z"/>
      <path class="uuid-01ef7cdb-3a15-4d67-b360-3b540d8ee2c6" d="M261.79,219.19v-37.97h49.49v37.97h-49.49ZM261.79,378.4v-140.36h49.49v140.36h-49.49Z"/>
      <path class="uuid-01ef7cdb-3a15-4d67-b360-3b540d8ee2c6" d="M319.66,286.49c0-27.06,9.17-49.62,27.49-67.69,18.33-18.07,41.64-27.1,69.92-27.1,26.01,0,49.4,8.47,70.18,25.4l-27.76,33.78c-13.45-11.17-27.23-16.76-41.37-16.76s-26.05,4.76-34.7,14.27c-8.64,9.52-12.96,22.22-12.96,38.1s4.23,29.11,12.7,38.63c8.47,9.52,20.12,14.27,34.96,14.27,15.71,0,29.59-5.85,41.63-17.55l29.33,30.9c-20.95,19.38-45.56,29.07-73.84,29.07s-51.06-9.04-68.87-27.1c-17.81-18.07-26.71-40.81-26.71-68.22Z"/>
      <path class="uuid-01ef7cdb-3a15-4d67-b360-3b540d8ee2c6" d="M483.06,305.61c0-21.82,6.98-39.58,20.95-53.29,13.96-13.7,31.59-20.56,52.89-20.56s38.67,6.85,52.63,20.56c13.96,13.7,20.95,31.47,20.95,53.29,0,23.4-6.77,41.94-20.3,55.64-13.53,13.71-31.29,20.56-53.29,20.56s-40.24-6.85-53.68-20.56c-13.45-13.7-20.16-32.25-20.16-55.64ZM532.55,305.87c0,12.57,2.05,22.43,6.15,29.59,4.1,7.16,10.17,10.74,18.2,10.74s13.83-3.58,17.94-10.74c4.1-7.16,6.15-17.02,6.15-29.59,0-11.7-2.14-21.04-6.42-28.02-4.28-6.98-10.17-10.48-17.67-10.48s-13.45,3.49-17.81,10.48c-4.37,6.98-6.55,16.32-6.55,28.02Z"/>
      <path class="uuid-01ef7cdb-3a15-4d67-b360-3b540d8ee2c6" d="M637.82,378.4v-143.24h46.87l2.09,15.45c12.57-12.57,26.36-18.85,41.37-18.85s27.1,4.41,34.17,13.22c7.07,8.82,10.61,21.86,10.61,39.15v94.27h-49.23v-95.58c0-10.48-4.63-15.71-13.88-15.71-8.38,0-15.97,4.37-22.78,13.09v98.2h-49.23Z"/>
      <path class="uuid-01ef7cdb-3a15-4d67-b360-3b540d8ee2c6" d="M784.72,378.4v-143.24h46.87l2.09,15.45c12.57-12.57,26.36-18.85,41.37-18.85s27.1,4.41,34.17,13.22c7.07,8.82,10.61,21.86,10.61,39.15v94.27h-49.23v-95.58c0-10.48-4.63-15.71-13.88-15.71-8.38,0-15.97,4.37-22.78,13.09v98.2h-49.23Z"/>
      <path class="uuid-01ef7cdb-3a15-4d67-b360-3b540d8ee2c6" d="M926.38,306.39c0-22.69,7.11-40.8,21.34-54.34,14.23-13.53,31.64-20.3,52.24-20.3s37.01,5.89,49.23,17.68c12.22,11.78,18.33,27.63,18.33,47.53,0,7.51-.61,14.49-1.83,20.95h-89.29c2.44,17.11,11.78,25.66,28.02,25.66,12.92,0,25.75-3.75,38.49-11.26l19.9,29.59c-17.98,13.27-39.02,19.9-63.11,19.9-21.12,0-38.62-6.76-52.5-20.3-13.88-13.53-20.82-31.9-20.82-55.12ZM1001.54,265.8c-6.11,0-11.35,2.23-15.71,6.68-4.37,4.45-7.33,11.13-8.9,20.03h44.78c0-8.03-1.66-14.49-4.98-19.38-3.32-4.89-8.38-7.33-15.19-7.33Z"/>
      <path class="uuid-01ef7cdb-3a15-4d67-b360-3b540d8ee2c6" d="M1069.09,306.39c0-22.87,7.11-41.02,21.34-54.47,14.22-13.44,32.34-20.16,54.34-20.16,19.55,0,37.01,6.2,52.37,18.59l-24.09,30.64c-8.21-6.81-17.02-10.21-26.45-10.21-7.68,0-14.23,3.06-19.64,9.16-5.41,6.11-8.12,14.93-8.12,26.45s2.7,20.69,8.12,26.97c5.41,6.29,11.96,9.43,19.64,9.43,8.73,0,17.19-3.23,25.4-9.69l25.92,27.23c-15.54,14.32-33.26,21.47-53.16,21.47-21.82,0-39.89-6.81-54.2-20.43-14.32-13.62-21.47-31.95-21.47-54.99Z"/>
      <path class="uuid-01ef7cdb-3a15-4d67-b360-3b540d8ee2c6" d="M1211.8,330.48v-62.32h-20.69v-32.99h20.69v-32.47h49.23v32.47h38.23v32.99h-38.23v61.28c0,8.9,3.67,13.35,11,13.35,5.93,0,11.69-2,17.28-6.02l17.28,28.28c-13.97,11.17-29.85,16.76-47.66,16.76-16.24,0-28.15-4.1-35.74-12.31-7.59-8.2-11.39-21.21-11.39-39.02Z"/>
      <path class="uuid-01ef7cdb-3a15-4d67-b360-3b540d8ee2c6" d="M1297.43,306.39c0-22.69,7.11-40.8,21.34-54.34,14.23-13.53,31.64-20.3,52.24-20.3s37.01,5.89,49.23,17.68c12.22,11.78,18.33,27.63,18.33,47.53,0,7.51-.61,14.49-1.83,20.95h-89.29c2.44,17.11,11.78,25.66,28.02,25.66,12.92,0,25.75-3.75,38.49-11.26l19.9,29.59c-17.98,13.27-39.02,19.9-63.11,19.9-21.12,0-38.62-6.76-52.5-20.3-13.88-13.53-20.82-31.9-20.82-55.12ZM1372.58,265.8c-6.11,0-11.35,2.23-15.71,6.68-4.37,4.45-7.33,11.13-8.9,20.03h44.78c0-8.03-1.66-14.49-4.98-19.38-3.32-4.89-8.38-7.33-15.19-7.33Z"/>
      <path class="uuid-01ef7cdb-3a15-4d67-b360-3b540d8ee2c6" d="M1492.77,381.29c-15.37,0-27.89-6.55-37.58-19.64-9.69-13.09-14.53-31.77-14.53-56.04s4.8-42.38,14.4-54.86c9.6-12.48,22.69-18.72,39.28-18.72,15.71,0,28.45,6.02,38.23,18.07v-69.39h49.23v197.7h-43.21l-2.88-15.97c-12.22,12.57-26.54,18.85-42.94,18.85ZM1510.58,345.15c8.55,0,15.88-3.31,22-9.95v-56.3c-6.46-6.98-13.79-10.48-22-10.48-14.14,0-21.21,12.4-21.21,37.19,0,11.87,1.79,21.43,5.37,28.67,3.58,7.25,8.86,10.87,15.84,10.87Z"/>
    </g>
    <g>
      <path class="uuid-01ef7cdb-3a15-4d67-b360-3b540d8ee2c6" d="M1602.9,376.57v-31.85h-13.1v-10.22h37.74v10.22h-13.1v31.85h-11.54Z"/>
      <path class="uuid-01ef7cdb-3a15-4d67-b360-3b540d8ee2c6" d="M1629.22,376.57v-42.07h11.6l11.12,15.63,11.18-15.63h11.42v42.07h-10.88v-26.08l-11.72,15.99-11.72-15.99v26.08h-11Z"/>
    </g>
  </g>
</svg>