<?xml version="1.0" encoding="UTF-8"?>
<svg id="uuid-97fa12d7-34ba-44b0-8923-e0f9ba312658" data-name="Layer 1" xmlns="http://www.w3.org/2000/svg" viewBox="0 0 502 502">
  <defs>
    <style>
      .uuid-2897874d-bf51-4517-b796-51a1389846b9 {
        fill: #2e95f3;
      }

      .uuid-6c5edcf7-6518-411f-aa68-9ff4a89631c8 {
        fill: #f6fbff;
      }

      .uuid-9fc6d910-de93-4764-ab80-c4d74ec3e28f {
        fill: #021220;
      }

      .uuid-d82b93dd-1ca4-46f7-9148-f7e3316b1dc1 {
        letter-spacing: 0em;
      }

      .uuid-0658172e-c147-4bd0-8b37-f181faa797b9 {
        letter-spacing: 0em;
      }

      .uuid-601fc35a-c5e2-4282-aec6-6aabd92bbced {
        letter-spacing: -.02em;
      }

      .uuid-fcbd0a99-375a-4cb4-a3c5-c3767435d177 {
        letter-spacing: -.02em;
      }

      .uuid-b15f9c05-ae20-43fa-846f-c4284bb857e3 {
        letter-spacing: -.01em;
      }

      .uuid-cea6c7b1-2d73-47d7-9ae5-5fe6844b0bab {
        fill: #8fa3b5;
        font-family: Montserrat-Regular, Montserrat;
        font-size: 21.73px;
      }

      .uuid-1768a623-2c9b-4b2e-9f98-b6bce3f31710 {
        letter-spacing: 0em;
      }

      .uuid-08b7e140-40e1-4c2a-95d3-eae619edd10d {
        letter-spacing: 0em;
      }

      .uuid-37e4a813-8160-4ab8-b00a-708d632fe8a2 {
        fill: #1c75bc;
      }
    </style>
  </defs>
  <rect class="uuid-9fc6d910-de93-4764-ab80-c4d74ec3e28f" x="-45.46" y="-45.46" width="592.91" height="592.91" rx="61.44" ry="61.44"/>
  <g>
    <g>
      <g>
        <path class="uuid-37e4a813-8160-4ab8-b00a-708d632fe8a2" d="M313.62,212.04c19.29-26.71,48.22-60.27,59.88-63.14,22.95-5.67,46.23,8.4,51.9,31.35,5.67,22.95-8.4,46.23-31.35,51.9-5.64,1.39-15.81-.51-28.13-4.47,24.7,11.63,48.42,19.06,69.55,22.57,6.96,1.19,13.58,1.92,19.86,2.37,19.47-22.51,28.14-53.79,20.48-84.81-12.53-50.75-64-81.84-114.75-69.32-21.39,5.28-44.8,24.53-71.55,58.84-4.75,6.09-15.84,21.39-19.75,26.93.24.13.48.25.72.39"/>
        <path class="uuid-37e4a813-8160-4ab8-b00a-708d632fe8a2" d="M249.43,227.88c-29.5-14.67-70.73-30.9-82.38-28.03-22.95,5.67-37.02,28.95-31.35,51.9,5.67,22.95,28.95,37.01,51.9,31.35,5.64-1.39,13.76-7.81,22.82-17.05-16.45,21.79-33.99,39.4-51.05,52.34-5.61,4.29-11.13,8.01-16.47,11.34-27.71-10.86-49.94-34.51-57.6-65.54-12.53-50.75,18.57-102.22,69.31-114.75,21.4-5.28,51.07.86,90.71,18.78,7.04,3.18,23.97,11.57,30.01,14.64-.15.23-.3.45-.45.68"/>
        <path class="uuid-2897874d-bf51-4517-b796-51a1389846b9" d="M125.52,181.79c21.13,3.51,45.07,11.78,69.77,23.42,14.49,4.67,31.79,11.86,48.46,20.41l45.24,24.96v.06c7.7,4.05,16.9,8.67,26.79,13.14,39.65,17.92,69.32,24.06,90.71,18.78,19.72-4.87,36.45-15.63,48.83-29.94-6.28-.45-12.9-1.19-19.86-2.37-21.13-3.51-44.84-10.95-69.55-22.57-14.49-4.67-31.95-12.2-48.61-20.74l-45.31-25.47v-.05c-7.7-4.05-16.9-8.67-26.79-13.14-39.65-17.92-69.32-24.06-90.71-18.78-19.72,4.87-36.45,15.63-48.83,29.94,6.28.45,12.9,1.18,19.86,2.37Z"/>
        <path class="uuid-2897874d-bf51-4517-b796-51a1389846b9" d="M159.24,318.43c17.07-12.93,34.6-30.55,51.06-52.34,10.65-10.87,22.6-25.66,33.38-40.98l28.26-43.63v-.06c4.9-7.17,10.89-15.53,17.57-24.09,26.75-34.31,50.16-53.56,71.55-58.84,19.72-4.87,39.54-3.12,57.15,3.78-5.35,3.32-10.86,7.05-16.47,11.34-17.07,12.94-34.97,31.9-51.42,53.69-10.65,10.87-21.94,24.87-32.72,40.18l-28.55,43.08v.05c-4.91,7.17-10.89,15.53-17.57,24.09-26.75,34.31-50.16,53.55-71.55,58.83-19.72,4.87-39.54,3.12-57.15-3.78,5.35-3.32,10.87-7.05,16.47-11.34Z"/>
      </g>
      <g>
        <path class="uuid-6c5edcf7-6518-411f-aa68-9ff4a89631c8" d="M11.54,359.33c0-9.35,8.31-14.77,24.93-16.27v-2.4c0-2.67-1.58-4.01-4.73-4.01s-7.99,1.47-14.19,4.41l-5.05-10.58c7.11-3.63,13.79-5.45,20.04-5.45,12.56,0,18.84,5.4,18.84,16.19v16.43c0,1.76.99,2.65,2.97,2.65v9.86c-4.86,0-8.43-.37-10.7-1.12-2.27-.75-4.16-2.24-5.65-4.49-1.92,2.24-3.94,3.88-6.05,4.89-2.11,1.01-4.66,1.52-7.65,1.52-3.74,0-6.8-1.07-9.18-3.21-2.38-2.14-3.57-4.94-3.57-8.42ZM26.45,357.09c0,1.02.36,1.87,1.08,2.57.72.7,1.67,1.04,2.85,1.04,2.46,0,4.49-.99,6.09-2.97v-7.13c-6.68.48-10.02,2.65-10.02,6.49Z"/>
        <path class="uuid-6c5edcf7-6518-411f-aa68-9ff4a89631c8" d="M56.11,321.18v-11.62h15.15v11.62h-15.15ZM56.11,369.91v-42.96h15.15v42.96h-15.15Z"/>
        <path class="uuid-6c5edcf7-6518-411f-aa68-9ff4a89631c8" d="M73.82,341.78c0-8.28,2.81-15.19,8.42-20.72,5.61-5.53,12.74-8.3,21.4-8.3,7.96,0,15.12,2.59,21.48,7.78l-8.5,10.34c-4.12-3.42-8.34-5.13-12.66-5.13s-7.98,1.46-10.62,4.37c-2.65,2.91-3.97,6.8-3.97,11.66s1.29,8.91,3.89,11.82c2.59,2.91,6.16,4.37,10.7,4.37,4.81,0,9.06-1.79,12.74-5.37l8.98,9.46c-6.41,5.93-13.95,8.9-22.6,8.9s-15.63-2.77-21.08-8.3c-5.45-5.53-8.18-12.49-8.18-20.88Z"/>
        <path class="uuid-6c5edcf7-6518-411f-aa68-9ff4a89631c8" d="M123.84,347.63c0-6.68,2.14-12.12,6.41-16.31,4.27-4.19,9.67-6.29,16.19-6.29s11.84,2.1,16.11,6.29c4.27,4.2,6.41,9.63,6.41,16.31,0,7.16-2.07,12.84-6.21,17.03-4.14,4.2-9.58,6.29-16.31,6.29s-12.32-2.1-16.43-6.29c-4.12-4.19-6.17-9.87-6.17-17.03ZM138.99,347.71c0,3.85.63,6.87,1.88,9.06,1.25,2.19,3.11,3.29,5.57,3.29s4.23-1.09,5.49-3.29c1.25-2.19,1.88-5.21,1.88-9.06,0-3.58-.66-6.44-1.96-8.58-1.31-2.14-3.11-3.21-5.41-3.21s-4.12,1.07-5.45,3.21c-1.34,2.14-2,5-2,8.58Z"/>
        <path class="uuid-6c5edcf7-6518-411f-aa68-9ff4a89631c8" d="M171.21,369.91v-43.84h14.35l.64,4.73c3.85-3.85,8.07-5.77,12.66-5.77s8.3,1.35,10.46,4.05c2.16,2.7,3.25,6.69,3.25,11.98v28.86h-15.07v-29.26c0-3.21-1.42-4.81-4.25-4.81-2.57,0-4.89,1.34-6.97,4.01v30.06h-15.07Z"/>
        <path class="uuid-6c5edcf7-6518-411f-aa68-9ff4a89631c8" d="M216.17,369.91v-43.84h14.35l.64,4.73c3.85-3.85,8.07-5.77,12.66-5.77s8.3,1.35,10.46,4.05c2.16,2.7,3.25,6.69,3.25,11.98v28.86h-15.07v-29.26c0-3.21-1.42-4.81-4.25-4.81-2.57,0-4.89,1.34-6.97,4.01v30.06h-15.07Z"/>
        <path class="uuid-6c5edcf7-6518-411f-aa68-9ff4a89631c8" d="M259.54,347.87c0-6.95,2.18-12.49,6.53-16.63,4.35-4.14,9.68-6.21,15.99-6.21s11.33,1.8,15.07,5.41c3.74,3.61,5.61,8.46,5.61,14.55,0,2.3-.19,4.44-.56,6.41h-27.33c.75,5.24,3.61,7.86,8.58,7.86,3.95,0,7.88-1.15,11.78-3.45l6.09,9.06c-5.5,4.06-11.94,6.09-19.32,6.09-6.47,0-11.82-2.07-16.07-6.21-4.25-4.14-6.37-9.77-6.37-16.87ZM282.54,335.44c-1.87,0-3.47.68-4.81,2.04-1.34,1.36-2.24,3.41-2.73,6.13h13.71c0-2.46-.51-4.43-1.52-5.93-1.02-1.5-2.57-2.24-4.65-2.24Z"/>
        <path class="uuid-6c5edcf7-6518-411f-aa68-9ff4a89631c8" d="M303.22,347.87c0-7,2.18-12.56,6.53-16.67,4.35-4.11,9.9-6.17,16.63-6.17,5.98,0,11.33,1.9,16.03,5.69l-7.37,9.38c-2.51-2.08-5.21-3.13-8.1-3.13-2.35,0-4.36.94-6.01,2.81-1.66,1.87-2.48,4.57-2.48,8.1s.83,6.33,2.48,8.26c1.66,1.92,3.66,2.89,6.01,2.89,2.67,0,5.26-.99,7.78-2.97l7.94,8.34c-4.76,4.38-10.18,6.57-16.27,6.57-6.68,0-12.21-2.08-16.59-6.25-4.38-4.17-6.57-9.78-6.57-16.83Z"/>
        <path class="uuid-6c5edcf7-6518-411f-aa68-9ff4a89631c8" d="M346.9,355.24v-19.08h-6.33v-10.1h6.33v-9.94h15.07v9.94h11.7v10.1h-11.7v18.76c0,2.73,1.12,4.09,3.37,4.09,1.82,0,3.58-.61,5.29-1.84l5.29,8.66c-4.28,3.42-9.14,5.13-14.59,5.13-4.97,0-8.62-1.25-10.94-3.77-2.32-2.51-3.49-6.49-3.49-11.94Z"/>
        <path class="uuid-6c5edcf7-6518-411f-aa68-9ff4a89631c8" d="M373.11,347.87c0-6.95,2.18-12.49,6.53-16.63,4.35-4.14,9.68-6.21,15.99-6.21s11.33,1.8,15.07,5.41c3.74,3.61,5.61,8.46,5.61,14.55,0,2.3-.19,4.44-.56,6.41h-27.33c.75,5.24,3.61,7.86,8.58,7.86,3.95,0,7.88-1.15,11.78-3.45l6.09,9.06c-5.5,4.06-11.94,6.09-19.32,6.09-6.47,0-11.82-2.07-16.07-6.21-4.25-4.14-6.37-9.77-6.37-16.87ZM396.12,335.44c-1.87,0-3.47.68-4.81,2.04-1.34,1.36-2.24,3.41-2.73,6.13h13.71c0-2.46-.51-4.43-1.52-5.93-1.02-1.5-2.57-2.24-4.65-2.24Z"/>
        <path class="uuid-6c5edcf7-6518-411f-aa68-9ff4a89631c8" d="M432.91,370.79c-4.7,0-8.54-2-11.5-6.01-2.97-4.01-4.45-9.72-4.45-17.15s1.47-12.97,4.41-16.79c2.94-3.82,6.95-5.73,12.02-5.73,4.81,0,8.71,1.84,11.7,5.53v-21.24h15.07v60.52h-13.23l-.88-4.89c-3.74,3.85-8.12,5.77-13.15,5.77ZM438.36,359.73c2.62,0,4.86-1.01,6.73-3.05v-17.23c-1.98-2.14-4.22-3.21-6.73-3.21-4.33,0-6.49,3.79-6.49,11.38,0,3.63.55,6.56,1.64,8.78,1.09,2.22,2.71,3.33,4.85,3.33Z"/>
      </g>
      <g>
        <path class="uuid-6c5edcf7-6518-411f-aa68-9ff4a89631c8" d="M467.86,370.51v-9.65h-3.97v-3.09h11.43v3.09h-3.97v9.65h-3.49Z"/>
        <path class="uuid-6c5edcf7-6518-411f-aa68-9ff4a89631c8" d="M476.74,370.51v-12.74h3.51l3.37,4.73,3.38-4.73h3.46v12.74h-3.29v-7.9l-3.55,4.84-3.55-4.84v7.9h-3.33Z"/>
      </g>
    </g>
    <text class="uuid-cea6c7b1-2d73-47d7-9ae5-5fe6844b0bab" transform="translate(205.23 400.59)"><tspan class="uuid-b15f9c05-ae20-43fa-846f-c4284bb857e3" x="0" y="0">B</tspan><tspan x="16.06" y="0">Y </tspan><tspan class="uuid-601fc35a-c5e2-4282-aec6-6aabd92bbced" x="35.55" y="0">O</tspan><tspan class="uuid-fcbd0a99-375a-4cb4-a3c5-c3767435d177" x="53.24" y="0">X</tspan><tspan class="uuid-1768a623-2c9b-4b2e-9f98-b6bce3f31710" x="66.97" y="0">F</tspan><tspan class="uuid-0658172e-c147-4bd0-8b37-f181faa797b9" x="80.53" y="0">ORD </tspan><tspan class="uuid-08b7e140-40e1-4c2a-95d3-eae619edd10d" x="138.11" y="0">P</tspan><tspan class="uuid-d82b93dd-1ca4-46f7-9148-f7e3316b1dc1" x="153.5" y="0">IERPONT</tspan></text>
  </g>
</svg>